<svg xmlns="http://www.w3.org/2000/svg" width="15" height="17" viewBox="0 0 22 26">
  <g id="Polygon_19" data-name="Polygon 19" transform="translate(22) rotate(90)" fill="#fff">
    <path d="M 24.24754905700684 21.50000381469727 L 1.752449989318848 21.50000381469727 C 1.490380048751831 21.50000381469727 1.361449956893921 21.32363319396973 1.318179965019226 21.24780464172363 C 1.274909973144531 21.17198371887207 1.188660025596619 20.97125434875488 1.321979999542236 20.74564361572266 L 12.56952953338623 1.711313724517822 C 12.70053958892822 1.489613771438599 12.91421031951904 1.465683817863464 13 1.465683817863464 C 13.08578014373779 1.465683817863464 13.29946041107178 1.489613771438599 13.43047046661377 1.711323738098145 L 24.67802047729492 20.74563407897949 C 24.81134033203125 20.97125434875488 24.72509002685547 21.17198371887207 24.68181991577148 21.24780464172363 C 24.6385498046875 21.32363319396973 24.50962066650391 21.50000381469727 24.24754905700684 21.50000381469727 Z" stroke="none"/>
    <path d="M 13 1.965682983398438 L 1.75244140625 21 C 1.752445220947266 21.00000190734863 1.752447128295898 21.00000381469727 1.752450942993164 21.00000381469727 L 24.24755096435547 21.00000381469727 L 13.00000953674316 1.965694427490234 C 13.00000667572021 1.965690612792969 13.00000381469727 1.965677261352539 13 1.965682983398438 M 12.99999618530273 0.9656810760498047 C 13.33369541168213 0.9656810760498047 13.66739463806152 1.129438400268555 13.86093044281006 1.456953048706055 L 25.10848045349121 20.49127388000488 C 25.50238990783691 21.15788459777832 25.0218505859375 22.00000381469727 24.24755096435547 22.00000381469727 L 1.752450942993164 22.00000381469727 C 0.9781494140625 22.00000381469727 0.4976100921630859 21.15788459777832 0.8915195465087891 20.49127388000488 L 12.13906955718994 1.456953048706055 C 12.33259963989258 1.129438400268555 12.66629791259766 0.9656810760498047 12.99999618530273 0.9656810760498047 Z" stroke="none" fill="#fff"/>
  </g>
</svg>